<?xml version="1.0" encoding="iso-8859-1"?>
<!-- Uploaded to: SVG Repo, www.svgrepo.com, Generator: SVG Repo Mixer Tools -->
<!DOCTYPE svg PUBLIC "-//W3C//DTD SVG 1.1//EN" "http://www.w3.org/Graphics/SVG/1.1/DTD/svg11.dtd">
<svg height="800px" width="800px" version="1.1" id="Capa_1" xmlns="http://www.w3.org/2000/svg" xmlns:xlink="http://www.w3.org/1999/xlink" 
	 viewBox="0 0 297.005 297.005" xml:space="preserve">
<g>
	<path style="fill:#935733;" d="M156.89,240.968c-9.695-9.695-9.695-25.415,0-35.11l6.259-6.259c5.733-5.733,15.028-5.733,20.761,0
		l4.602,4.602c2.904,2.904,7.548,3.048,10.662,0.371c1.539-1.323,3.013-2.685,4.413-4.085
		c38.202-38.202,4.525-111.592,4.525-111.592s-73.39-33.677-111.592,4.525c-1.4,1.4-2.762,2.874-4.085,4.413
		c-2.677,3.114-2.533,7.758,0.371,10.662l4.602,4.602c5.733,5.733,5.733,15.028,0,20.761l-6.259,6.259
		c-9.695,9.695-25.415,9.695-35.11,0l-5.432-5.432c-2.578-2.578-6.597-3.028-9.688-1.095c-7.113,4.446-13.587,9.488-19.113,15.013
		c-34.959,34.959-25.1,81.78,9.86,116.74s81.78,44.819,116.74,9.859c5.525-5.525,10.567-11.999,15.013-19.113
		c1.932-3.092,1.483-7.11-1.095-9.688L156.89,240.968z"/>
	<g>
		<path style="fill:#935733;" d="M58.396,142.186c-0.817-0.635-1.608-1.32-2.358-2.071l-5.432-5.432
			c-2.578-2.578-6.596-3.028-9.688-1.095c-1.52,0.95-3.004,1.932-4.462,2.936C42.605,141.999,50.82,143.884,58.396,142.186z"/>
		<path style="opacity:0.3;fill:#935733;" d="M208.111,88.894c0,0-0.144-0.066-0.403-0.18l-13.641,13.641
			c7.396,24.22,15.186,67.226-11.128,93.54c-0.546,0.546-1.113,1.082-1.681,1.616c0.941,0.584,1.835,1.271,2.652,2.087l4.602,4.602
			c2.904,2.904,7.548,3.048,10.662,0.371c1.539-1.323,3.013-2.685,4.413-4.085C241.788,162.285,208.111,88.894,208.111,88.894z"/>
	</g>
	<g style="opacity:0.3;">
		<path style="fill:#935733;" d="M156.89,240.968c-1.977-1.977-3.543-4.206-4.714-6.582c-3.999,6.035-8.437,11.558-13.241,16.362
			c-34.959,34.959-81.78,25.1-116.74-9.859c-8.33-8.33-15.231-17.334-20.444-26.69c3.962,17.998,14.494,35.724,29.913,51.143
			c34.959,34.959,81.78,44.819,116.74,9.859c5.525-5.525,10.567-11.999,15.013-19.113c1.932-3.092,1.483-7.11-1.095-9.688
			L156.89,240.968z"/>
	</g>
	<path style="fill:#5E4534;" d="M137.927,149.558l9.52,9.52c3.417,3.417,8.957,3.417,12.374,0L279.748,39.152
		c3.417-3.417,3.417-8.957,0-12.374l-9.52-9.52c-3.417-3.417-8.957-3.417-12.374,0L137.927,137.184
		C134.51,140.601,134.51,146.141,137.927,149.558z"/>
	<path style="opacity:0.3;fill:#5E4534;" d="M279.748,26.778l-1.24-1.24c-0.178,0.216-0.366,0.427-0.568,0.629L158.014,146.093
		c-3.417,3.417-8.957,3.417-12.375,0l-8.281-8.281c-2.835,3.437-2.647,8.531,0.568,11.746l9.52,9.52
		c3.417,3.417,8.957,3.417,12.374,0L279.748,39.152C283.165,35.735,283.165,30.195,279.748,26.778z"/>
	<path style="fill:#5E4534;" d="M22.225,263.873l10.907,10.907c2.05,2.05,5.374,2.05,7.425,0l21.805-21.805
		c2.05-2.05,2.05-5.374,0-7.425l-10.907-10.907c-2.05-2.05-5.374-2.05-7.425,0l-21.805,21.805
		C20.175,258.499,20.175,261.823,22.225,263.873z"/>
	<path style="opacity:0.3;fill:#5E4534;" d="M60.908,244.096l-20.351,20.351c-2.05,2.05-5.375,2.05-7.425,0l-9.453-9.453
		l-1.454,1.454c-2.05,2.05-2.05,5.375,0,7.425l10.907,10.907c2.05,2.05,5.374,2.05,7.425,0l21.805-21.805
		c2.05-2.05,2.05-5.374,0-7.425L60.908,244.096z"/>
	<path style="fill:#F9B65F;" d="M65.736,213.686l17.584,17.584c1.519,1.519,3.982,1.519,5.501,0l0.304-0.304
		c1.519-1.519,1.519-3.982,0-5.501l-17.584-17.584c-1.519-1.519-3.982-1.519-5.501,0l-0.304,0.304
		C64.217,209.704,64.217,212.167,65.736,213.686z"/>
	<path style="fill:#794C2B;" d="M259.307,56.366l-18.668-18.668c-2.805-2.805-2.805-7.353,0-10.157l23.582-23.582
		c5.278-5.278,13.836-5.278,19.114,0l9.712,9.712c5.278,5.278,5.278,13.836,0,19.114l-23.582,23.582
		C266.659,59.171,262.112,59.171,259.307,56.366z"/>
	<path style="opacity:0.3;fill:#794C2B;" d="M293.295,13.946c-0.589,2.236-1.746,4.353-3.499,6.106l-23.582,23.583
		c-2.805,2.805-7.352,2.805-10.157,0l-15.739-15.739c-2.472,2.821-2.37,7.112,0.321,9.803l18.668,18.668
		c2.805,2.805,7.353,2.805,10.157,0l23.582-23.582C298.236,27.594,298.311,19.241,293.295,13.946z"/>
	<path style="fill:#5E4534;" d="M51.779,169.694c-1.355-1.355-2.097-2.548-2.164-2.656c-0.912-1.491-0.442-3.44,1.049-4.352
		c1.492-0.912,3.443-0.442,4.352,1.049c0.013,0.016,2.173,3.391,5.376,3.714c2.232,0.225,4.714-1.073,7.378-3.859
		c4.372-4.574,8.884-6.702,13.408-6.328c6.193,0.514,9.76,5.656,9.907,5.874c0.984,1.446,0.61,3.416-0.835,4.399
		c-1.439,0.979-3.391,0.614-4.386-0.817c-0.071-0.098-2.131-2.916-5.256-3.15c-2.514-0.187-5.293,1.293-8.262,4.396
		c-4.106,4.294-8.367,6.238-12.664,5.776C56.162,173.363,53.485,171.4,51.779,169.694z"/>
	<path style="fill:#5E4534;" d="M127.311,245.227c1.355,1.355,2.548,2.097,2.656,2.164c1.491,0.912,3.44,0.442,4.352-1.049
		c0.912-1.492,0.442-3.443-1.049-4.352c-0.016-0.013-3.392-2.173-3.714-5.376c-0.225-2.232,1.073-4.714,3.859-7.378
		c4.573-4.372,6.702-8.884,6.328-13.408c-0.514-6.193-5.656-9.76-5.874-9.907c-1.446-0.984-3.416-0.61-4.399,0.835
		c-0.979,1.439-0.614,3.392,0.817,4.386c0.098,0.071,2.916,2.131,3.15,5.256c0.187,2.514-1.293,5.293-4.396,8.262
		c-4.294,4.106-6.238,8.367-5.776,12.664C123.642,240.843,125.605,243.521,127.311,245.227z"/>
</g>
</svg>